<?xml version="1.0" encoding="utf-8"?>
<!-- Generator: Adobe Illustrator 27.5.0, SVG Export Plug-In . SVG Version: 6.00 Build 0)  -->
<svg version="1.1" id="레이어_1" xmlns="http://www.w3.org/2000/svg" xmlns:xlink="http://www.w3.org/1999/xlink" x="0px"
	 y="0px" viewBox="0 0 1366 768" style="enable-background:new 0 0 1366 768;" xml:space="preserve">
<style type="text/css">
	.st0{fill:none;stroke:#161414;stroke-width:15;stroke-miterlimit:10;}
</style>
<polyline class="st0" points="1689,267.5 1689,249 1739,222 1789,249 1789,279 1689,279 1689,310 "/>
<line class="st0" x1="1787" y1="291.5" x2="1787" y2="310"/>
<text transform="matrix(1 0 0 1 1574.0288 365.4229)" style="fill:#161414; font-family:'SDAndante-KSCpc-EUC-H'; font-size:52.0605px;">Re-member</text>
<text transform="matrix(1 0 0 1 1702.1562 399.3125)" style="fill:#161414; font-family:'GmarketSansLight-KSCpc-EUC-H'; font-size:21.9001px;">기억해조</text>
<polyline class="st0" points="1570,122.5 1570,104 1620,77 1670,104 1670,134 1570,134 1570,165 "/>
<line class="st0" x1="1668" y1="146.5" x2="1668" y2="165"/>
<text transform="matrix(1 0 0 1 1701.0288 134.4229)" style="fill:#161414; font-family:'SDAndante-KSCpc-EUC-H'; font-size:52.0605px;">Re-member</text>
<text transform="matrix(1 0 0 1 1704.0293 163.3125)" style="fill:#161414; font-family:'GmarketSansLight-KSCpc-EUC-H'; font-size:21.9001px;">기억해조</text>
</svg>
